<?xml version="1.0" encoding="UTF-8"?>
<svg id="Layer_1" xmlns="http://www.w3.org/2000/svg" version="1.1" viewBox="0 0 48 48">
  <!-- Generator: Adobe Illustrator 29.5.0, SVG Export Plug-In . SVG Version: 2.1.0 Build 137)  -->
  <defs>
    <style>
      .st0 {
        fill: #e64438;
      }
    </style>
  </defs>
  <path class="st0" d="M12.6,22.8h-3l-.9-3.2h-4.4l-.9,3.2H.4l4.4-13.3h3.6l4.3,13.3ZM8,17.2l-.8-2.8-.7-2.3h0l-.6,2.3-.8,2.8h3Z"/>
  <path class="st0" d="M15.6,22.8h-2.8v-10h2.8v2.2h0c0-.4.2-.7.4-1,.2-.3.5-.6.8-.8.3-.2.8-.3,1.3-.3h.5v2.6h-.7c-.5,0-1,0-1.4.1-.4,0-.6.2-.8.5-.2.2-.3.5-.3.9v5.8Z"/>
  <path class="st0" d="M25,22.8v-1.7h0c-.1.5-.5,1-1,1.4-.5.4-1.1.5-1.7.5s-1.5-.2-2.1-.6-1-1-1.3-1.8c-.3-.8-.4-1.7-.4-2.9s.1-2.1.4-2.9c.3-.8.7-1.4,1.3-1.8s1.3-.6,2.1-.6,1.2.2,1.7.5c.5.4.8.8,1,1.4h0v-5.8h2.8v14.1h-2.8ZM23.2,20.8c.4,0,.7,0,1-.2.3-.1.5-.3.7-.5.2-.2.2-.5.2-.8v-2.9c0-.3,0-.6-.2-.8-.2-.2-.4-.4-.7-.5-.3-.1-.6-.2-1-.2-.5,0-1,.2-1.3.6-.3.4-.5.9-.5,1.5v1.7c0,.6.2,1.1.5,1.5.3.4.8.6,1.3.6Z"/>
  <path class="st0" d="M33.1,23c-1,0-1.9-.2-2.6-.6-.7-.4-1.3-1-1.6-1.8-.4-.8-.6-1.7-.6-2.8s.2-2,.5-2.7c.4-.8.9-1.4,1.6-1.8.7-.4,1.5-.6,2.5-.6s2,.2,2.7.7c.7.5,1.2,1.1,1.5,1.9.3.8.5,1.6.5,2.5v.8h-6.4v.2c0,.7.2,1.2.5,1.6.4.4.9.6,1.7.6s1.1-.1,1.4-.4.7-.5,1-.8l1.4,1.7c-.4.5-1,.9-1.7,1.2-.7.3-1.5.4-2.4.4ZM33,14.7c-.4,0-.7,0-1,.3s-.5.4-.6.7c-.1.3-.2.7-.2,1.1v.2h3.5v-.2c0-.4,0-.8-.2-1.1-.1-.3-.3-.5-.6-.7s-.6-.3-.9-.3Z"/>
  <path class="st0" d="M40.9,22.8h-2.8v-10h2.8v1.7h.1c.2-.5.5-1,.9-1.3.4-.4,1.1-.6,1.8-.6s1.8.3,2.3,1,.8,1.7.8,2.9v6.3h-2.8v-6c0-.6-.1-1.1-.3-1.4-.2-.3-.6-.5-1.1-.5s-.6,0-.9.2c-.3.1-.5.3-.7.5-.2.2-.3.5-.3.8v6.5Z"/>
  <path class="st0" d="M4.4,37.8H1.5v-13.3h6.3c.8,0,1.5.2,2.1.5.6.4,1.1.9,1.4,1.5.3.6.5,1.4.5,2.2s-.2,1.6-.5,2.2c-.3.6-.8,1.1-1.4,1.5-.6.4-1.3.5-2.1.5h-3.4v4.8ZM4.4,27v3.5h3c.3,0,.5,0,.7-.2s.4-.2.5-.4c.1-.2.2-.4.2-.7v-.8c0-.3,0-.5-.2-.7-.1-.2-.3-.3-.5-.4-.2-.1-.4-.2-.7-.2h-3Z"/>
  <path class="st0" d="M16,38c-1,0-1.9-.2-2.6-.6-.7-.4-1.3-1-1.6-1.8-.4-.8-.6-1.7-.6-2.8s.2-2,.5-2.7c.4-.8.9-1.4,1.6-1.8.7-.4,1.5-.6,2.5-.6s2,.2,2.7.7c.7.5,1.2,1.1,1.5,1.9.3.8.5,1.6.5,2.5v.8h-6.4v.2c0,.7.2,1.2.5,1.6.4.4.9.6,1.7.6s1.1-.1,1.4-.4c.4-.2.7-.5,1-.8l1.4,1.7c-.4.5-1,.9-1.7,1.2-.7.3-1.5.4-2.4.4ZM16,29.7c-.4,0-.7,0-1,.3-.3.2-.5.4-.6.7-.1.3-.2.7-.2,1.1v.2h3.5v-.2c0-.4,0-.8-.2-1.1-.1-.3-.3-.5-.6-.7s-.6-.3-.9-.3Z"/>
  <path class="st0" d="M23.8,37.8h-2.8v-10h2.8v2.2h0c0-.4.2-.7.4-1,.2-.3.5-.6.8-.8.3-.2.8-.3,1.3-.3h.5v2.6h-.7c-.5,0-1,0-1.4.1-.4,0-.6.2-.8.5-.2.2-.3.5-.3.9v5.8Z"/>
  <path class="st0" d="M33.6,37.8h-1.7c-1,0-1.7-.2-2.2-.7-.5-.5-.8-1.2-.8-2.2v-4.9h-1.4v-2.2h.7c.4,0,.6,0,.8-.3s.2-.4.2-.8v-1.6h2.5v2.7h2v2.2h-2v5.6h1.8v2.2Z"/>
  <path class="st0" d="M34.2,37.8v-14.1h2.8v5.8h.1c.2-.5.5-1,.9-1.3.4-.4,1.1-.6,1.8-.6s1.8.3,2.3,1,.8,1.7.8,2.9v6.3h-2.8v-6c0-.6-.1-1.1-.3-1.4-.2-.3-.6-.5-1.1-.5s-.6,0-.9.2-.5.3-.7.5c-.2.2-.3.5-.3.8v6.5h-2.8Z"/>
</svg>